<svg xmlns="http://www.w3.org/2000/svg" viewBox="0 9.329999923706055 371.19000244140625 36.56999969482422" data-asc="0.9052734375"><g fill="#2386ff"><g fill="#2386ff" transform="translate(0, 0)"><path d="M0 35.89L4.61 35.50Q5.13 38.87 6.99 40.56Q8.86 42.26 11.50 42.26Q14.67 42.26 16.87 39.87Q19.07 37.48 19.07 33.52Q19.07 29.76 16.96 27.59Q14.84 25.42 11.43 25.42Q9.30 25.42 7.59 26.38Q5.88 27.34 4.91 28.88L0.78 28.34L4.25 9.96L22.05 9.96L22.05 14.16L7.76 14.16L5.83 23.78Q9.06 21.53 12.60 21.53Q17.29 21.53 20.51 24.78Q23.73 28.03 23.73 33.13Q23.73 37.99 20.90 41.53Q17.46 45.87 11.50 45.87Q6.62 45.87 3.53 43.14Q0.44 40.41 0 35.89ZM50.90 41.04L50.90 45.26L27.25 45.26Q27.20 43.68 27.76 42.21Q28.66 39.79 30.65 37.45Q32.64 35.11 36.40 32.03Q42.24 27.25 44.29 24.45Q46.34 21.66 46.34 19.17Q46.34 16.55 44.47 14.76Q42.60 12.96 39.60 12.96Q36.43 12.96 34.52 14.87Q32.62 16.77 32.59 20.14L28.08 19.68Q28.54 14.62 31.57 11.98Q34.59 9.33 39.70 9.33Q44.85 9.33 47.85 12.18Q50.85 15.04 50.85 19.26Q50.85 21.41 49.98 23.49Q49.10 25.56 47.06 27.86Q45.02 30.15 40.28 34.16Q36.33 37.48 35.21 38.66Q34.08 39.84 33.35 41.04L50.90 41.04ZM58.08 45.26L58.08 40.26L63.09 40.26L63.09 45.26L58.08 45.26ZM69.53 35.82L73.93 35.23Q74.68 38.96 76.50 40.61Q78.32 42.26 80.93 42.26Q84.03 42.26 86.17 40.11Q88.31 37.96 88.31 34.79Q88.31 31.76 86.33 29.80Q84.35 27.83 81.30 27.83Q80.05 27.83 78.20 28.32L78.69 24.46Q79.13 24.51 79.39 24.51Q82.20 24.51 84.45 23.05Q86.69 21.58 86.69 18.53Q86.69 16.11 85.06 14.53Q83.42 12.94 80.83 12.94Q78.27 12.94 76.56 14.55Q74.85 16.16 74.37 19.38L69.97 18.60Q70.78 14.18 73.63 11.76Q76.49 9.33 80.74 9.33Q83.67 9.33 86.13 10.58Q88.60 11.84 89.90 14.01Q91.21 16.19 91.21 18.63Q91.21 20.95 89.97 22.85Q88.72 24.76 86.28 25.88Q89.45 26.61 91.21 28.92Q92.97 31.23 92.97 34.69Q92.97 39.38 89.55 42.64Q86.13 45.90 80.91 45.90Q76.20 45.90 73.08 43.09Q69.97 40.28 69.53 35.82ZM111.40 45.26L111.40 36.69L95.87 36.69L95.87 32.67L112.21 9.47L115.80 9.47L115.80 32.67L120.63 32.67L120.63 36.69L115.80 36.69L115.80 45.26L111.40 45.26M111.40 32.67L111.40 16.53L100.20 32.67L111.40 32.67ZM147.92 18.24L143.55 18.58Q142.97 15.99 141.89 14.82Q140.11 12.94 137.50 12.94Q135.40 12.94 133.81 14.11Q131.74 15.63 130.54 18.53Q129.35 21.44 129.30 26.81Q130.88 24.39 133.18 23.22Q135.47 22.05 137.99 22.05Q142.38 22.05 145.47 25.28Q148.56 28.52 148.56 33.64Q148.56 37.01 147.11 39.90Q145.65 42.80 143.12 44.34Q140.58 45.87 137.35 45.87Q131.86 45.87 128.39 41.83Q124.93 37.79 124.93 28.52Q124.93 18.14 128.76 13.43Q132.10 9.33 137.77 9.33Q141.99 9.33 144.69 11.69Q147.39 14.06 147.92 18.24M129.98 33.67Q129.98 35.94 130.94 38.01Q131.91 40.09 133.64 41.17Q135.38 42.26 137.28 42.26Q140.06 42.26 142.07 40.01Q144.07 37.77 144.07 33.91Q144.07 30.20 142.09 28.06Q140.11 25.93 137.11 25.93Q134.13 25.93 132.06 28.06Q129.98 30.20 129.98 33.67ZM168.46 45.26L168.46 9.47L175.59 9.47L184.06 34.81Q185.23 38.35 185.77 40.11Q186.38 38.16 187.67 34.38L196.24 9.47L202.61 9.47L202.61 45.26L198.05 45.26L198.05 15.31L187.65 45.26L183.37 45.26L173.02 14.79L173.02 45.26L168.46 45.26ZM227.44 36.91L231.98 37.48Q230.91 41.46 228.00 43.65Q225.10 45.85 220.58 45.85Q214.89 45.85 211.56 42.35Q208.23 38.84 208.23 32.52Q208.23 25.98 211.60 22.36Q214.97 18.75 220.34 18.75Q225.54 18.75 228.83 22.29Q232.13 25.83 232.13 32.25Q232.13 32.64 232.10 33.42L212.77 33.42Q213.01 37.70 215.19 39.97Q217.36 42.24 220.61 42.24Q223.02 42.24 224.73 40.97Q226.44 39.70 227.44 36.91M213.01 29.81L227.49 29.81Q227.20 26.54 225.83 24.90Q223.73 22.36 220.39 22.36Q217.36 22.36 215.30 24.39Q213.23 26.42 213.01 29.81ZM237.50 45.26L237.50 19.34L241.43 19.34L241.43 22.97Q242.65 21.07 244.68 19.91Q246.70 18.75 249.29 18.75Q252.17 18.75 254.02 19.95Q255.86 21.14 256.62 23.29Q259.69 18.75 264.62 18.75Q268.48 18.75 270.56 20.89Q272.63 23.02 272.63 27.47L272.63 45.26L268.26 45.26L268.26 28.93Q268.26 26.29 267.83 25.13Q267.41 23.97 266.28 23.27Q265.16 22.56 263.65 22.56Q260.91 22.56 259.11 24.38Q257.30 26.20 257.30 30.20L257.30 45.26L252.91 45.26L252.91 28.42Q252.91 25.49 251.83 24.02Q250.76 22.56 248.32 22.56Q246.46 22.56 244.89 23.54Q243.31 24.51 242.60 26.39Q241.89 28.27 241.89 31.81L241.89 45.26L237.50 45.26ZM283.20 45.26L279.13 45.26L279.13 9.47L283.52 9.47L283.52 22.24Q286.30 18.75 290.63 18.75Q293.02 18.75 295.15 19.71Q297.29 20.68 298.67 22.42Q300.05 24.17 300.83 26.64Q301.61 29.10 301.61 31.91Q301.61 38.57 298.32 42.21Q295.02 45.85 290.41 45.85Q285.82 45.85 283.20 42.02L283.20 45.26M283.15 32.10Q283.15 36.77 284.42 38.84Q286.50 42.24 290.04 42.24Q292.92 42.24 295.02 39.73Q297.12 37.23 297.12 32.28Q297.12 27.20 295.10 24.78Q293.09 22.36 290.23 22.36Q287.35 22.36 285.25 24.87Q283.15 27.37 283.15 32.10ZM324.71 36.91L329.25 37.48Q328.17 41.46 325.27 43.65Q322.36 45.85 317.85 45.85Q312.16 45.85 308.83 42.35Q305.49 38.84 305.49 32.52Q305.49 25.98 308.86 22.36Q312.23 18.75 317.60 18.75Q322.80 18.75 326.10 22.29Q329.39 25.83 329.39 32.25Q329.39 32.64 329.37 33.42L310.03 33.42Q310.28 37.70 312.45 39.97Q314.62 42.24 317.87 42.24Q320.29 42.24 322.00 40.97Q323.71 39.70 324.71 36.91M310.28 29.81L324.76 29.81Q324.46 26.54 323.10 24.90Q321.00 22.36 317.65 22.36Q314.62 22.36 312.56 24.39Q310.50 26.42 310.28 29.81ZM334.72 45.26L334.72 19.34L338.67 19.34L338.67 23.27Q340.19 20.51 341.47 19.63Q342.75 18.75 344.29 18.75Q346.51 18.75 348.80 20.17L347.29 24.24Q345.68 23.29 344.07 23.29Q342.63 23.29 341.48 24.16Q340.33 25.02 339.84 26.56Q339.11 28.91 339.11 31.69L339.11 45.26L334.72 45.26ZM349.66 37.52L354.00 36.84Q354.37 39.45 356.04 40.84Q357.71 42.24 360.72 42.24Q363.75 42.24 365.21 41.00Q366.67 39.77 366.67 38.11Q366.67 36.62 365.38 35.77Q364.48 35.18 360.89 34.28Q356.05 33.06 354.19 32.17Q352.32 31.27 351.35 29.70Q350.39 28.13 350.39 26.22Q350.39 24.49 351.18 23.01Q351.98 21.53 353.34 20.56Q354.37 19.80 356.14 19.27Q357.91 18.75 359.94 18.75Q362.99 18.75 365.30 19.63Q367.60 20.51 368.70 22.01Q369.80 23.51 370.21 26.03L365.92 26.61Q365.63 24.61 364.22 23.49Q362.82 22.36 360.25 22.36Q357.23 22.36 355.93 23.36Q354.64 24.37 354.64 25.71Q354.64 26.56 355.18 27.25Q355.71 27.95 356.86 28.42Q357.52 28.66 360.74 29.54Q365.41 30.79 367.25 31.58Q369.09 32.37 370.14 33.89Q371.19 35.40 371.19 37.65Q371.19 39.84 369.91 41.78Q368.63 43.73 366.21 44.79Q363.79 45.85 360.74 45.85Q355.69 45.85 353.04 43.75Q350.39 41.65 349.66 37.52Z"/></g></g></svg>